<svg xmlns="http://www.w3.org/2000/svg" viewBox="0 0 311.05 311.05" data-guides="{&quot;vertical&quot;:[],&quot;horizontal&quot;:[]}"><defs/><path fill="#49454f" stroke="none" fill-opacity="1" stroke-width="1" stroke-opacity="1" id="tSvg2dd3c9933f" title="Path 1" d="M281.7018 127.1775C249.0954 127.1775 216.4891 127.1775 183.8827 127.1775C183.8827 94.5641 183.8827 61.9508 183.8827 29.3374C183.8837 13.7108 171.167 1.0002 155.5245 1.0002C139.882 1.0002 127.1663 13.7108 127.1663 29.3374C127.1663 61.9508 127.1663 94.5641 127.1663 127.1775C94.5636 127.1775 61.9609 127.1775 29.3582 127.1775C13.7216 127.1775 1 139.8991 1 155.5247C1 171.1452 13.7166 183.8619 29.3582 183.8619C61.9609 183.8619 94.5636 183.8619 127.1663 183.8619C127.1663 216.4753 127.1663 249.0886 127.1663 281.702C127.1663 297.3336 139.877 310.0492 155.5245 310.0492C171.167 310.0492 183.8827 297.3326 183.8827 281.702C183.8827 249.0886 183.8827 216.4753 183.8827 183.8619C216.4891 183.8619 249.0954 183.8619 281.7018 183.8619C297.3334 183.8619 310.049 171.1452 310.049 155.5247C310.05 139.8991 297.3334 127.1775 281.7018 127.1775Z"/></svg>